<svg width="30" height="26" viewBox="0 0 30 26" fill="none" xmlns="http://www.w3.org/2000/svg">
<path fill-rule="evenodd" clip-rule="evenodd" d="M29.9703 7.42436C29.9703 10.6963 27.3179 13.3487 24.0459 13.3487C23.8588 13.3487 23.6736 13.34 23.4909 13.3231V23.5003V24.5003H22.4909H1H0V23.5003V9.2373V8.2373H1H18.1769C18.1404 7.97154 18.1216 7.70015 18.1216 7.42436C18.1216 4.15243 20.774 1.5 24.0459 1.5C27.3179 1.5 29.9703 4.15243 29.9703 7.42436ZM11.7458 18.8253L19.4312 11.1398C18.9802 10.5804 18.6288 9.93721 18.4041 9.2373H2.15779L11.7458 18.8253ZM12.0993 19.8859L20.1221 11.8631C20.7935 12.457 21.6006 12.901 22.4909 13.1425V23.5003H1V9.49373L11.3922 19.8859L11.7458 20.2395L12.0993 19.8859ZM25.4627 5.47408L24.046 2.89355L22.6294 5.47408L19.7374 6.02398L21.7538 8.16873L21.3831 11.0891L24.046 9.83412L26.7089 11.0891L26.3382 8.16873L28.3547 6.02398L25.4627 5.47408Z" fill="white"/>
</svg>
