<svg width="37" height="39" viewBox="0 0 37 39" fill="none" xmlns="http://www.w3.org/2000/svg">
<path fill-rule="evenodd" clip-rule="evenodd" d="M30.7004 2.75944C30.7038 3.302 30.8681 3.83135 31.1724 4.28051C31.4768 4.72967 31.9076 5.07844 32.4102 5.28269C32.9129 5.48694 33.4648 5.53749 33.9962 5.42793C34.5276 5.31838 35.0146 5.05365 35.3955 4.66724C35.7764 4.28084 36.0341 3.79013 36.136 3.25721C36.2379 2.72429 36.1794 2.17313 35.9679 1.67346C35.7565 1.17379 35.4015 0.748088 34.948 0.450215C34.4945 0.152342 33.9629 -0.00430756 33.4203 9.0115e-05C33.0599 0.000512252 32.7032 0.0724631 32.3708 0.211772C32.0384 0.351082 31.737 0.554979 31.484 0.811644C31.231 1.06831 31.0315 1.37264 30.8969 1.70699C30.7624 2.04135 30.6956 2.39907 30.7004 2.75944ZM35.3309 10.1583H31.5501V29.7119H35.3309V10.1583ZM8.41978 10.1583V7.07327C8.41978 4.38933 10.1679 3.73977 11.5048 3.73977C12.4817 3.73977 12.9684 3.91116 13.1724 3.98314V0.565663C13.0096 0.442264 12.1972 0.15776 10.8963 0.15776C7.36746 0.15776 4.47786 2.51606 4.47786 6.86589V10.1583H0.863281V13.6134H4.47786V29.7119H8.41978V13.6134V10.1583ZM19.6956 25.5643C16.2404 25.5643 14.0397 23.1255 14.0397 19.3052C14.0397 15.5244 16.3158 13.0444 19.6956 13.0444C22.9879 13.0444 25.2657 15.5244 25.2657 19.3052C25.2657 23.0861 22.9879 25.5643 19.6956 25.5643ZM10.0978 30.7677C10.5897 34.9633 14.2471 38.0482 19.1265 38.0482C26.4842 38.0482 28.9231 33.21 28.9231 28.2517V10.1583H25.1423V12.8816C24.1671 10.9312 22.1344 9.79663 19.1265 9.79663C13.7604 9.79663 10.1424 14.0231 10.1424 19.3087C10.1424 24.8359 13.9232 28.7796 19.1265 28.7796C22.0539 28.7796 24.1671 27.3571 25.1029 25.5678V28.3734C25.1029 32.6015 23.233 34.7148 19.1265 34.7148C16.1598 34.7148 14.086 32.641 13.8015 29.9159L10.0978 30.7677Z" fill="black"/>
</svg>
