<svg width="1159" height="102" viewBox="0 0 1159 102" fill="none" xmlns="http://www.w3.org/2000/svg">
<path d="M1158.89 0.768423H1148.74V79.1439H1158.89V0.768423ZM1112.12 72.2093C1106.94 72.2093 1103.7 68.5355 1103.7 64.6403C1103.7 59.9779 1106.94 57.4992 1111.25 56.85L1127.21 54.4598V56.85C1127.21 68.2109 1120.51 72.2093 1112.19 72.2093H1112.12ZM1093.35 65.1715C1093.35 73.4044 1100.16 80.7669 1110.74 80.7669C1120.03 80.7669 1125.23 75.7799 1127.49 72.106C1127.46 74.4632 1127.64 76.8186 1128.02 79.1439H1137.96C1137.5 76.3152 1137.29 73.4522 1137.31 70.5863V44.5005C1137.31 34.3347 1131.26 25.4526 1115.71 25.4526C1104.48 25.4526 1095.51 32.3871 1094.44 42.3316L1104.15 44.6186C1104.8 38.5545 1108.79 34.1134 1115.93 34.1134C1123.81 34.1134 1127.17 38.3332 1127.17 43.4234C1127.17 45.2677 1126.3 46.8907 1123.16 47.3186L1109.12 49.3695C1100.13 50.7269 1093.35 55.8762 1093.35 65.1715ZM1050.33 49.0449C1050.33 41.1513 1054.43 34.7626 1062.42 34.7626C1071.49 34.7626 1074.53 40.6644 1074.53 47.8645V79.1439H1084.67V46.1235C1084.67 34.5413 1078.52 25.5558 1066.1 25.5558C1062.88 25.4549 1059.69 26.2334 1056.87 27.8082C1054.06 29.383 1051.72 31.695 1050.11 34.497V27.1198H1040.17V79.1439H1050.33V49.0449ZM1005 25.4526C989.446 25.4526 978.491 37.2561 978.491 53.0581C978.491 68.8601 989.505 80.7669 1005 80.7669C1020.49 80.7669 1031.5 68.9633 1031.5 53.0581C1031.5 37.1528 1020.49 25.4526 1005 25.4526ZM1005 71.6782C996.352 71.6782 988.798 65.1715 988.798 53.0581C988.798 40.9447 996.308 34.497 1005 34.497C1013.68 34.497 1021.19 40.989 1021.19 53.0138C1021.19 65.0387 1013.6 71.6782 1005 71.6782ZM957.419 7.37841C957.42 8.84247 957.855 10.2734 958.669 11.489C959.483 12.7046 960.64 13.6499 961.992 14.2046C963.345 14.7593 964.831 14.8984 966.262 14.604C967.694 14.3097 969.005 13.5953 970.03 12.5517C971.055 11.5081 971.746 10.1826 972.017 8.74391C972.288 7.30518 972.125 5.8183 971.55 4.47252C970.974 3.12674 970.012 1.98294 968.786 1.18669C967.56 0.390443 966.125 -0.0222293 964.664 0.00119568C963.703 0.00106832 962.751 0.19267 961.864 0.564837C960.978 0.937004 960.174 1.48229 959.499 2.16892C958.825 2.85555 958.294 3.66978 957.937 4.56418C957.58 5.45857 957.404 6.41523 957.419 7.37841ZM969.744 27.1198H959.687V79.1439H969.744V27.1198ZM939.278 10.6244H929.987V19.0639C929.987 23.6083 927.616 27.0756 921.991 27.0756H919.179V36.2823H929.118V64.8469C929.118 74.2749 934.743 79.6751 943.593 79.6751C945.933 79.7362 948.269 79.4275 950.513 78.7603V70.0552C949.195 70.3237 947.854 70.4669 946.508 70.483C941.222 70.483 939.278 68.1076 939.278 63.3419V36.2823H950.513V27.1198H939.278V10.6244ZM889.051 72.2093C883.853 72.2093 880.614 68.5355 880.614 64.6403C880.614 59.9779 883.853 57.4992 888.182 56.85L904.056 54.4598V56.85C904.056 68.2109 897.371 72.2093 889.051 72.2093ZM870.247 65.1715C870.247 73.4044 877.05 80.7669 887.638 80.7669C896.929 80.7669 902.112 75.7799 904.38 72.106C904.34 74.4639 904.523 76.8203 904.925 79.1439H914.864C914.397 76.3161 914.18 73.4524 914.216 70.5863V44.5005C914.216 34.3347 908.164 25.4526 892.615 25.4526C881.38 25.4526 872.412 32.3871 871.322 42.3316L881.056 44.6186C881.704 38.5545 885.694 34.1134 892.836 34.1134C900.728 34.1134 904.071 38.3332 904.071 43.4234C904.071 45.2677 903.217 46.8907 900.08 47.3186L886.033 49.3695C877.065 50.6679 870.262 55.8762 870.262 65.1715H870.247ZM827.265 49.0449C827.265 41.1513 831.374 34.7626 839.369 34.7626C848.44 34.7626 851.473 40.6644 851.473 47.8645V79.1439H861.619V46.1235C861.619 34.5413 855.464 25.5558 843.036 25.5558C839.812 25.4533 836.62 26.2311 833.803 27.8061C830.987 29.381 828.65 31.6939 827.044 34.497V27.1198H817.105V79.1439H827.25L827.265 49.0449ZM810.626 26.5296C809.518 26.3254 808.395 26.2168 807.269 26.205C803.973 26.0816 800.719 26.969 797.94 28.7487C795.161 30.5284 792.991 33.1155 791.719 36.1643V27.1198H781.78V79.1439H791.925V53.0581C791.925 41.5791 797.653 37.0348 806.194 37.0348C807.672 37.0377 809.148 37.1462 810.611 37.3594L810.626 26.5296ZM764.066 61.2763C762.122 67.1781 757.91 71.7814 749.473 71.7814C740.726 71.7814 734.027 65.2895 733.82 55.9795H772.915C773.071 54.9047 773.145 53.8195 773.136 52.7335C773.136 36.5036 764.169 25.4526 748.177 25.4526C735.116 25.4526 723.336 36.6069 723.336 52.94C723.336 70.6453 735.543 80.7669 749.473 80.7669C761.577 80.7669 769.897 73.5077 772.812 64.3157L764.066 61.2763ZM734.144 47.776C734.327 44.1571 735.904 40.7504 738.544 38.2735C741.183 35.7966 744.679 34.4427 748.295 34.497C757.469 34.497 762.328 40.3988 762.549 47.776H734.144ZM707.639 10.6539H698.348V19.0934C698.348 23.6378 695.977 27.1051 690.352 27.1051H687.554V36.3118H697.479V64.8469C697.479 74.2749 703.104 79.6751 711.968 79.6751C714.307 79.716 716.638 79.3874 718.875 78.7013V70.0552C717.561 70.3229 716.225 70.4662 714.884 70.483C709.583 70.483 707.639 68.1076 707.639 63.3419V36.2823H718.875V27.1198H707.639V10.6539ZM647.797 49.0154C647.797 41.1218 651.905 34.7331 659.886 34.7331C668.971 34.7331 671.99 40.6349 671.99 47.835V79.1144H682.15V46.1235C682.15 34.5413 675.995 25.5558 663.567 25.5558C660.348 25.4603 657.164 26.2414 654.353 27.8159C651.542 29.3904 649.21 31.6995 647.606 34.497V27.1198H637.666V79.1439H647.826L647.797 49.0154ZM612.398 7.37841C612.398 8.84308 612.834 10.2745 613.649 11.4904C614.464 12.7063 615.621 13.6516 616.974 14.2058C618.328 14.7601 619.815 14.8982 621.246 14.6026C622.678 14.3071 623.989 13.5911 625.014 12.5461C626.038 11.501 626.728 10.1742 626.997 8.7345C627.266 7.29482 627.101 5.80752 626.524 4.46204C625.946 3.11657 624.982 1.97383 623.754 1.17941C622.526 0.384984 621.09 -0.0251685 619.628 0.00119568C618.667 0.00103395 617.716 0.192723 616.83 0.565065C615.944 0.937407 615.141 1.48293 614.468 2.16977C613.795 2.8566 613.265 3.67097 612.91 4.56529C612.554 5.4596 612.38 6.41594 612.398 7.37841ZM624.708 27.1198H614.666V79.1439H624.708V27.1198ZM572.964 53.0581C572.964 63.7698 567.074 71.4568 557.621 71.4568C548.168 71.4568 542.174 63.7698 542.174 53.0581C542.174 42.73 548.33 34.8659 557.621 34.8659C566.913 34.8659 572.964 42.6562 572.964 53.0581ZM542.278 99.7115V72.106C545.09 76.7537 551.113 80.5456 559.138 80.5456C574.363 80.5456 583.331 68.5355 583.331 53.0581C583.331 37.9053 575.011 25.8804 559.462 25.8804C551.039 25.8804 544.869 29.9969 542.071 35.1905V27.1198H532.235V99.7115H542.278ZM509.662 72.8585C509.667 74.9607 509.809 77.0604 510.089 79.1439H519.822C519.461 75.9451 519.279 72.7285 519.277 69.5093V27.1198H509.117V58.473C509.117 66.3666 505.009 71.7519 496.807 71.7519C488.266 71.7519 485.027 65.4666 485.027 58.3254V27.1198H474.896V59.8746C474.896 71.6782 482.259 80.7669 494.333 80.7669C500.385 80.7669 506.864 78.2734 509.676 72.8585H509.662ZM440.734 25.4526C425.184 25.4526 414.229 37.2561 414.229 53.0581C414.229 68.8601 425.243 80.7669 440.734 80.7669C456.225 80.7669 467.313 68.9633 467.313 53.0581C467.313 37.1528 456.298 25.4526 440.734 25.4526ZM440.734 71.6782C432.09 71.6782 424.536 65.1715 424.536 53.0581C424.536 40.9447 432.09 34.497 440.734 34.497C449.378 34.497 456.931 40.989 456.931 53.0138C456.931 65.0387 449.363 71.6339 440.734 71.6339V71.6782ZM412.55 26.5296C411.442 26.3263 410.319 26.2177 409.193 26.205C405.898 26.0816 402.643 26.969 399.864 28.7487C397.086 30.5284 394.915 33.1155 393.643 36.1643V27.1198H383.704V79.1439H393.908V53.0581C393.908 41.5791 399.637 37.0348 408.177 37.0348C409.655 37.0377 411.132 37.1462 412.595 37.3594L412.55 26.5296ZM347.304 68.1076C338.115 68.1076 332.284 61.6009 332.284 51.4351C332.284 41.2693 338.336 34.7626 347.304 34.7626C356.05 34.7626 362.102 41.3578 362.102 51.4351C362.102 61.5124 356.05 68.1076 347.304 68.1076ZM321.756 81.962C323.052 93.1016 332.77 101.335 345.743 101.335C365.342 101.335 371.821 88.4539 371.821 75.2487V27.1198H361.779V34.379C359.187 29.1707 353.783 26.146 345.787 26.146C331.519 26.146 321.903 37.4036 321.903 51.4794C321.903 66.2338 331.96 76.6947 345.787 76.6947C353.562 76.6947 359.187 72.9028 361.661 68.1518V75.6176C361.661 86.8752 356.698 92.4966 345.787 92.4966C342.242 92.5978 338.793 91.3268 336.158 88.9475C333.523 86.5682 331.904 83.2634 331.636 79.7193L321.756 81.962ZM296.414 26.5296C295.311 26.3252 294.193 26.2166 293.072 26.205C289.788 26.1041 286.551 27.0015 283.786 28.7791C281.021 30.5567 278.858 33.1314 277.581 36.1643V27.1198H267.568V79.1439H277.728V53.0581C277.728 41.5791 283.456 37.0348 291.982 37.0348C293.46 37.037 294.937 37.1455 296.4 37.3594L296.414 26.5296ZM249.854 61.2763C247.91 67.1781 243.699 71.7814 235.276 71.7814C226.529 71.7814 219.83 65.2895 219.609 55.9795H258.718C258.867 54.9039 258.941 53.8193 258.939 52.7335C258.939 36.5036 249.972 25.4526 233.907 25.4526C220.831 25.4526 209.066 36.6069 209.066 52.94C209.066 70.6453 221.273 80.7669 235.202 80.7669C247.306 80.7669 255.611 73.5077 258.542 64.3157L249.854 61.2763ZM219.933 47.776C220.119 44.1584 221.697 40.7539 224.336 38.2777C226.975 35.8015 230.468 34.4464 234.083 34.497C243.272 34.497 248.131 40.3988 248.352 47.776H219.933ZM167.143 48.5137C167.35 40.8267 171.458 34.7626 179.233 34.7626C188.318 34.7626 191.337 40.6644 191.337 47.8645V79.1439H201.497V46.1235C201.497 34.5413 195.342 25.5558 182.914 25.5558C177.024 25.5558 170.913 27.6215 167.143 33.1396V0.768423H156.983V79.1439H167.143V48.5137ZM125.913 34.8659C134.748 34.8659 138.562 40.7677 139.858 45.9169L149.032 42.007C146.882 34.1134 139.74 25.4526 125.913 25.4526C111.188 25.4526 99.7766 36.8135 99.7766 53.0581C99.7766 68.8601 110.909 80.7669 126.031 80.7669C131.161 80.9467 136.212 79.4649 140.434 76.5413C144.657 73.6178 147.827 69.4082 149.473 64.537L140.506 60.6419C139.713 63.8603 137.818 66.6981 135.151 68.6608C132.485 70.6235 129.216 71.5868 125.913 71.3831C117.476 71.3831 110.025 64.9944 110.025 53.0876C110.025 41.1808 117.638 34.8659 125.913 34.8659ZM55.2335 65.6141C56.1023 71.5159 62.1542 80.7669 76.408 80.7669C89.2629 80.7669 95.418 72.0028 95.418 64.6403C95.418 56.9533 90.4557 51.2138 81.0611 49.1629L72.6237 47.3186C68.6332 46.4481 66.7337 44.1759 66.7337 41.0332C66.7337 37.4627 70.1941 34.1134 75.3773 34.1134C83.5791 34.1134 85.6848 40.0152 86.1707 42.7743L94.991 39.4102C93.916 34.7626 89.4838 25.4526 75.23 25.4526C65.1287 25.4526 56.8091 33.0216 56.8091 41.8742C56.8091 49.2514 61.6683 54.7548 69.7818 56.4959L78.6168 58.4434C82.9459 59.4172 85.3167 61.896 85.3167 65.1419C85.3167 68.8305 82.1802 72.0765 76.4817 72.0765C69.1192 72.0765 65.0256 67.7387 64.3777 62.3386L55.2335 65.6141ZM34.7804 7.37841C34.7807 8.84308 35.216 10.2745 36.0311 11.4904C36.8461 12.7063 38.0039 13.6516 39.3569 14.2058C40.71 14.7601 42.1971 14.8982 43.6287 14.6026C45.0604 14.3071 46.3719 13.5911 47.3961 12.5461C48.4203 11.501 49.1108 10.1742 49.3798 8.7345C49.6487 7.29482 49.4839 5.80752 48.9062 4.46204C48.3286 3.11657 47.3643 1.97383 46.1363 1.17941C44.9082 0.384984 43.4719 -0.0251685 42.0104 0.00119568C41.0497 0.00103395 40.0986 0.192723 39.2127 0.565065C38.3267 0.937407 37.5238 1.48293 36.8506 2.16977C36.1775 2.8566 35.6477 3.67097 35.2923 4.56529C34.9368 5.4596 34.7628 6.41594 34.7804 7.37841ZM47.0905 27.1198H37.0481V79.1439H47.0905V27.1198ZM20.0849 27.1198V18.8426C20.0849 11.7014 24.738 9.98993 28.3014 9.98993C29.8021 9.9151 31.3029 10.1357 32.7189 10.6391V1.53565C30.8221 0.694955 28.7522 0.320617 26.6817 0.443827C17.2724 0.443827 9.58597 6.72921 9.58597 18.2672V27.1198H0V36.3266H9.58597V79.1439H20.0555V36.2823" fill="#1D1D1B"/>
</svg>
