<svg width="27" height="26" viewBox="0 0 27 26" fill="none" xmlns="http://www.w3.org/2000/svg">
<path d="M7.25 21H7.75V20.5H7.25V21ZM7.25 23.5H6.75V24.9254L7.64043 23.8123L7.25 23.5ZM9.25 21V20.5H9.00969L8.85957 20.6877L9.25 21ZM1.5 6.5C1.5 5.11929 2.61929 4 4 4V3C2.067 3 0.5 4.567 0.5 6.5H1.5ZM1.5 18V6.5H0.5V18H1.5ZM4 20.5C2.61929 20.5 1.5 19.3807 1.5 18H0.5C0.5 19.933 2.067 21.5 4 21.5V20.5ZM7.25 20.5H4V21.5H7.25V20.5ZM7.75 23.5V21H6.75V23.5H7.75ZM8.85957 20.6877L6.85957 23.1877L7.64043 23.8123L9.64043 21.3123L8.85957 20.6877ZM23 20.5H9.25V21.5H23V20.5ZM25.5 18C25.5 19.3807 24.3807 20.5 23 20.5V21.5C24.933 21.5 26.5 19.933 26.5 18H25.5ZM25.5 6.5V18H26.5V6.5H25.5ZM23 4C24.3807 4 25.5 5.11929 25.5 6.5H26.5C26.5 4.567 24.933 3 23 3V4ZM4 4H23V3H4V4Z" fill="white"/>
<line x1="4.92871" y1="13" x2="12.0716" y2="13" stroke="white"/>
<line x1="4.92871" y1="8.71387" x2="19.2144" y2="8.71387" stroke="white"/>
</svg>
