<svg width="25" height="25" viewBox="0 0 25 25" fill="none" xmlns="http://www.w3.org/2000/svg">
<path fill-rule="evenodd" clip-rule="evenodd" d="M11.4722 0.99995C16.7259 0.99995 20.9835 5.25549 20.9835 10.5034C20.9835 13.0495 19.9813 15.362 18.3494 17.0683L18.2642 16.9831L17.5568 17.69L17.621 17.7542C15.9631 19.1593 13.8168 20.0069 11.4722 20.0069C6.21858 20.0069 1.96094 15.7513 1.96094 10.5034C1.96094 5.25549 6.21858 0.99995 11.4722 0.99995ZM19.0569 17.7753C20.8695 15.8881 21.9835 13.3257 21.9835 10.5034C21.9835 4.7025 17.2775 -5.03038e-05 11.4722 -5.00502e-05C5.667 -4.97966e-05 0.960937 4.70251 0.960937 10.5034C0.960937 16.3043 5.667 21.0069 11.4722 21.0069C14.093 21.0069 16.4898 20.0484 18.3306 18.4632L24.1955 24.3237L24.9029 23.6169L19.0569 17.7753Z" fill="black"/>
</svg>
