<svg width="19" height="20" viewBox="0 0 19 20" fill="none" xmlns="http://www.w3.org/2000/svg">
<path opacity="0.2" fill-rule="evenodd" clip-rule="evenodd" d="M14.6065 4.37747L14.476 5.32091L15.2744 5.84027C16.1363 6.401 16.662 7.31157 16.662 8.30738C16.662 9.89803 15.2797 11.3197 13.4072 11.3197C12.4812 11.3197 11.6596 10.9639 11.0744 10.407L10.1156 9.49457L9.09088 10.3323C8.34404 10.9429 7.36218 11.32 6.27374 11.32C3.83846 11.32 2 9.46536 2 7.34069C2 5.21603 3.83846 3.36143 6.27374 3.36143C7.034 3.36143 7.74134 3.54529 8.35295 3.86348L9.67632 4.55196L10.3721 3.2324C10.7219 2.56901 11.4736 2.07178 12.3883 2.07178C13.6982 2.07178 14.6243 3.06056 14.6243 4.11718C14.6243 4.20608 14.6182 4.2929 14.6065 4.37747ZM16.0923 4.58291C16.1134 4.4305 16.1243 4.27505 16.1243 4.11718C16.1243 2.15911 14.4516 0.571777 12.3883 0.571777C10.9251 0.571777 9.6583 1.37008 9.04524 2.53279C8.22257 2.1048 7.27811 1.86143 6.27374 1.86143C3.08499 1.86143 0.5 4.31458 0.5 7.34069C0.5 10.3668 3.08499 12.82 6.27374 12.82C7.71298 12.82 9.02922 12.3202 10.0403 11.4936C10.9011 12.3128 12.0918 12.8197 13.4072 12.8197C16.0332 12.8197 18.162 10.7995 18.162 8.30738C18.162 6.7608 17.3421 5.39595 16.0923 4.58291ZM10.5 17.4433V14.28H12V17.4433H10.5ZM1.60938 17.4437L1.60938 14.2804H3.10938V17.4437H1.60938ZM14.9453 14.28V19.5522H16.4453V14.28H14.9453ZM6.05469 19.5522L6.05469 14.28H7.55469L7.55469 19.5522H6.05469Z" fill="white"/>
</svg>
