<svg width="48" height="45" viewBox="0 0 48 45" fill="none" xmlns="http://www.w3.org/2000/svg">
<path fill-rule="evenodd" clip-rule="evenodd" d="M24 39C24 39 39 23.2843 39 15C39 6.71573 32.2843 0 24 0C15.7157 0 9 6.71573 9 15C9 23.2843 24 39 24 39ZM24 20C26.7614 20 29 17.7614 29 15C29 12.2386 26.7614 10 24 10C21.2386 10 19 12.2386 19 15C19 17.7614 21.2386 20 24 20Z" fill="#E84E0F"/>
<path d="M47.5 39C47.5 39.5425 47.0481 40.2025 45.8595 40.905C44.7044 41.5878 42.9997 42.22 40.8493 42.7576C36.5562 43.8308 30.5989 44.5 24 44.5C17.4011 44.5 11.4438 43.8308 7.1507 42.7576C5.00031 42.22 3.29556 41.5878 2.14045 40.905C0.951874 40.2025 0.5 39.5425 0.5 39C0.5 38.4575 0.951874 37.7975 2.14045 37.095C3.29556 36.4122 5.00031 35.78 7.1507 35.2424C11.4438 34.1692 17.4011 33.5 24 33.5C30.5989 33.5 36.5562 34.1692 40.8493 35.2424C42.9997 35.78 44.7044 36.4122 45.8595 37.095C47.0481 37.7975 47.5 38.4575 47.5 39Z" stroke="#E84E0F"/>
</svg>
