<svg width="31" height="20" viewBox="0 0 31 20" fill="none" xmlns="http://www.w3.org/2000/svg">
<path fill-rule="evenodd" clip-rule="evenodd" d="M26.4792 1H4C2.34315 1 1 2.34315 1 4V12.6667C1 14.3235 2.34314 15.6667 4 15.6667H26.4792C28.136 15.6667 29.4792 14.3235 29.4792 12.6667V4C29.4792 2.34314 28.136 1 26.4792 1ZM4 0C1.79086 0 0 1.79086 0 4V12.6667C0 14.8758 1.79086 16.6667 4 16.6667H14.7786V19H10.1595V20H20.3192V19H15.7786V16.6667H26.4792C28.6883 16.6667 30.4792 14.8758 30.4792 12.6667V4C30.4792 1.79086 28.6883 0 26.4792 0H4Z" fill="white"/>
</svg>
