<svg width="30" height="34" viewBox="0 0 30 34" fill="none" xmlns="http://www.w3.org/2000/svg">
<path opacity="0.2" fill-rule="evenodd" clip-rule="evenodd" d="M22.5707 10.1308L22.7035 9.18051C22.7226 9.04435 22.7325 8.90495 22.7325 8.76266C22.7325 7.0493 21.2229 5.5 19.1566 5.5C17.7078 5.5 16.5028 6.28006 15.9375 7.34137L15.2419 8.647L13.9268 7.96966C13.0184 7.50184 11.9692 7.23242 10.8445 7.23242C7.2491 7.23242 4.5 9.94481 4.5 13.0929C4.5 16.241 7.2491 18.9534 10.8445 18.9534C12.4547 18.9534 13.9116 18.401 15.021 17.5035L16.0393 16.6797L16.9928 17.5777C17.8858 18.4187 19.1371 18.953 20.5409 18.953C23.3718 18.953 25.5011 16.8222 25.5011 14.3915C25.5011 12.8725 24.6889 11.4932 23.3777 10.6498L22.5707 10.1308ZM24.2325 8.76266C24.2325 8.9747 24.2177 9.18351 24.1891 9.38822C25.8872 10.4804 27.0011 12.3139 27.0011 14.3915C27.0011 17.7392 24.1088 20.453 20.5409 20.453C18.7527 20.453 17.1341 19.7713 15.9644 18.6696C14.5904 19.7812 12.8011 20.4534 10.8445 20.4534C6.5121 20.4534 3 17.158 3 13.0929C3 9.02782 6.5121 5.73242 10.8445 5.73242C12.2105 5.73242 13.495 6.06005 14.6136 6.63613C15.4461 5.07323 17.1678 4 19.1566 4C21.9599 4 24.2325 6.13231 24.2325 8.76266ZM4.50743 26.6656L4.50743 22.4162H6.00743V26.6656H4.50743ZM10.5387 22.412L10.5387 29.4943H12.0387V22.412H10.5387ZM16.5894 26.6642V22.4147H18.0894V26.6642H16.5894ZM22.6202 22.413V29.4953H24.1202V22.413H22.6202Z" fill="black"/>
</svg>
