<svg width="30" height="23" viewBox="0 0 30 23" fill="none" xmlns="http://www.w3.org/2000/svg">
<path fill-rule="evenodd" clip-rule="evenodd" d="M21.3627 7.73705H2.18763L11.7752 17.3246L21.3627 7.73705ZM1.0293 7.99293V22H22.5202V7.99373L12.1287 18.3852L11.7752 18.7388L11.4216 18.3852L1.0293 7.99293ZM0.0292969 6.73705H1.0293H22.5202H23.5202V7.73705V22V23H22.5202H1.0293H0.0292969V22V7.73705V6.73705Z" fill="black"/>
<circle cx="24.0747" cy="5.92436" r="5.92436" fill="black"/>
<path d="M24.0753 1.39397L25.492 3.97449L28.384 4.52439L26.3675 6.66914L26.7382 9.58952L24.0753 8.33453L21.4124 9.58952L21.7831 6.66914L19.7667 4.52439L22.6587 3.97449L24.0753 1.39397Z" fill="white"/>
</svg>
